<?xml version="1.0" encoding="UTF-8" standalone="no"?>
<svg
   height="24px"
   viewBox="0 0 24 24"
   width="24px"
   fill="#FFFFFF"
   version="1.1"
   id="svg6"
   sodipodi:docname="close_white_24dp.svg"
   inkscape:version="1.1 (c68e22c387, 2021-05-23)"
   xmlns:inkscape="http://www.inkscape.org/namespaces/inkscape"
   xmlns:sodipodi="http://sodipodi.sourceforge.net/DTD/sodipodi-0.dtd"
   xmlns="http://www.w3.org/2000/svg"
   xmlns:svg="http://www.w3.org/2000/svg">
  <defs
     id="defs10" />
  <sodipodi:namedview
     id="namedview8"
     pagecolor="#505050"
     bordercolor="#eeeeee"
     borderopacity="1"
     inkscape:pageshadow="0"
     inkscape:pageopacity="0"
     inkscape:pagecheckerboard="0"
     showgrid="false"
     inkscape:zoom="32.458333"
     inkscape:cx="10.259307"
     inkscape:cy="12"
     inkscape:window-width="1920"
     inkscape:window-height="1009"
     inkscape:window-x="-8"
     inkscape:window-y="-8"
     inkscape:window-maximized="1"
     inkscape:current-layer="svg6" />
  <path
     d="M0 0h24v24H0V0z"
     fill="none"
     id="path2" />
  <path
     id="path827"
     style="fill:#262729;fill-opacity:1"
     d="M 4.9960938,3.5859375 C 4.0546875,4.5273438 3.1132813,5.46875 2.171875,6.4101562 4.0351562,8.2734375 5.8984375,10.136719 7.7617188,12 5.8984375,13.863281 4.0351562,15.726563 2.171875,17.589844 3.5846354,19.002604 4.9973958,20.415365 6.4101562,21.828125 8.2734375,19.964844 10.136719,18.101563 12,16.238281 c 1.863281,1.863282 3.726563,3.726563 5.589844,5.589844 1.41276,-1.41276 2.825521,-2.825521 4.238281,-4.238281 C 19.964844,15.726563 18.101563,13.863281 16.238281,12 18.101563,10.136719 19.964844,8.2734375 21.828125,6.4101562 20.415365,4.9973958 19.002604,3.5846354 17.589844,2.171875 15.726563,4.0351562 13.863281,5.8984375 12,7.7617188 10.136719,5.8984375 8.2734375,4.0351562 6.4101562,2.171875 5.9388021,2.6432292 5.4674479,3.1145833 4.9960938,3.5859375 Z" />
  <path
     d="M19 6.41L17.59 5 12 10.59 6.41 5 5 6.41 10.59 12 5 17.59 6.41 19 12 13.41 17.59 19 19 17.59 13.41 12 19 6.41z"
     id="path4" />
</svg>
