<?xml version="1.0" encoding="UTF-8" standalone="no"?>
<svg
   enable-background="new 0 0 24 24"
   height="24px"
   viewBox="0 0 24 24"
   width="24px"
   fill="#FFFFFF"
   version="1.1"
   id="svg24"
   sodipodi:docname="palette_24dp.svg"
   inkscape:version="1.1 (c68e22c387, 2021-05-23)"
   xmlns:inkscape="http://www.inkscape.org/namespaces/inkscape"
   xmlns:sodipodi="http://sodipodi.sourceforge.net/DTD/sodipodi-0.dtd"
   xmlns="http://www.w3.org/2000/svg"
   xmlns:svg="http://www.w3.org/2000/svg">
  <defs
     id="defs28" />
  <sodipodi:namedview
     id="namedview26"
     pagecolor="#505050"
     bordercolor="#eeeeee"
     borderopacity="1"
     inkscape:pageshadow="0"
     inkscape:pageopacity="0"
     inkscape:pagecheckerboard="0"
     showgrid="false"
     inkscape:zoom="32.458333"
     inkscape:cx="10.259307"
     inkscape:cy="12"
     inkscape:window-width="1920"
     inkscape:window-height="1009"
     inkscape:window-x="-8"
     inkscape:window-y="-8"
     inkscape:window-maximized="1"
     inkscape:current-layer="svg24" />
  <g
     id="g4">
    <rect
       fill="none"
       height="24"
       width="24"
       id="rect2" />
  </g>
  <path
     id="path845"
     style="fill:#262729;fill-opacity:1"
     d="M 11.433594,0.01367188 C 6.5564435,0.18027535 2.0312359,3.6533981 0.58349095,8.308841 c -1.51320399,4.483858 -0.0204737,9.76913 3.61599265,12.797655 2.3683421,2.027728 5.5868868,3.175575 8.7067664,2.805613 2.221878,-0.417499 3.871338,-2.682592 3.564453,-4.925781 3.647229,-0.156261 6.910686,-3.110906 7.429688,-6.724609 C 24.537118,8.0343278 22.075674,3.7551217 18.4127,1.7066961 16.315294,0.4821723 13.856296,-0.09385481 11.433594,0.01367188 Z"
     sodipodi:nodetypes="cccccccc" />
  <g
     id="g22">
    <g
       id="g20">
      <g
         id="g18">
        <g
           id="g16">
          <path
             d="M 12,22 C 6.49,22 2,17.51 2,12 2,6.49 6.49,2 12,2 c 5.51,0 10,4.04 10,9 0,3.31 -2.69,6 -6,6 h -1.77 c -0.28,0 -0.5,0.22 -0.5,0.5 0,0.12 0.05,0.23 0.13,0.33 0.41,0.47 0.64,1.06 0.64,1.67 0,1.38 -1.12,2.5 -2.5,2.5 z M 12,4 c -4.41,0 -8,3.59 -8,8 0,4.41 3.59,8 8,8 0.28,0 0.5,-0.22 0.5,-0.5 0,-0.16 -0.08,-0.28 -0.14,-0.35 -0.41,-0.46 -0.63,-1.05 -0.63,-1.65 0,-1.38 1.12,-2.5 2.5,-2.5 H 16 c 2.21,0 4,-1.79 4,-4 0,-3.86 -3.59,-7 -8,-7 z"
             id="path6" />
          <circle
             cx="6.5"
             cy="11.5"
             r="1.5"
             id="circle8" />
          <circle
             cx="9.5"
             cy="7.5"
             r="1.5"
             id="circle10" />
          <circle
             cx="14.5"
             cy="7.5"
             r="1.5"
             id="circle12" />
          <circle
             cx="17.5"
             cy="11.5"
             r="1.5"
             id="circle14" />
        </g>
      </g>
    </g>
  </g>
</svg>
