<?xml version="1.0" encoding="UTF-8" standalone="no"?>
<svg
   height="24px"
   viewBox="0 0 24 24"
   width="24px"
   fill="#FFFFFF"
   version="1.1"
   id="svg6"
   sodipodi:docname="settings_24dp.svg"
   inkscape:version="1.1 (c68e22c387, 2021-05-23)"
   xmlns:inkscape="http://www.inkscape.org/namespaces/inkscape"
   xmlns:sodipodi="http://sodipodi.sourceforge.net/DTD/sodipodi-0.dtd"
   xmlns="http://www.w3.org/2000/svg"
   xmlns:svg="http://www.w3.org/2000/svg">
  <defs
     id="defs10" />
  <sodipodi:namedview
     id="namedview8"
     pagecolor="#505050"
     bordercolor="#eeeeee"
     borderopacity="1"
     inkscape:pageshadow="0"
     inkscape:pageopacity="0"
     inkscape:pagecheckerboard="0"
     showgrid="false"
     inkscape:zoom="32.458333"
     inkscape:cx="10.259307"
     inkscape:cy="12"
     inkscape:window-width="1920"
     inkscape:window-height="1009"
     inkscape:window-x="-8"
     inkscape:window-y="-8"
     inkscape:window-maximized="1"
     inkscape:current-layer="svg6" />
  <path
     id="path907"
     d="M 9.8300781,0.0078125 C 8.4287935,0.05070116 7.4283021,1.3882788 7.4444441,2.7306884 7.3480545,3.1878937 7.4749147,4.1857307 6.7430828,3.6163158 5.7655453,3.1574327 4.6056393,2.7133726 3.5828297,3.310978 2.4396535,3.9900634 2.083672,5.3908377 1.3565651,6.4340999 0.75749465,7.4487972 -0.09455934,8.602704 0.41915036,9.8341265 0.72772246,10.860804 1.8692735,11.280315 2.4980469,12 c -0.7138061,0.770502 -1.99048964,1.274862 -2.16766826,2.482993 -0.33298717,1.478701 0.89461376,2.629644 1.47786576,3.864524 0.6064197,1.043782 1.1620539,2.427182 2.5286031,2.591544 1.0361857,0.248458 1.9699041,-0.502532 2.9072931,-0.714452 0.3073088,1.038137 0.1321033,2.422547 1.1269532,3.1875 C 9.5046305,24.353511 11.057585,23.889093 12.4,24 c 1.200323,-0.0068 2.649438,0.207612 3.494426,-0.862226 0.755718,-0.78246 0.544787,-2.005598 0.86534,-2.919024 1.088058,0.325514 2.299633,1.16724 3.472656,0.546875 1.270384,-0.556031 1.616064,-2.058564 2.360979,-3.113142 0.596725,-1.036383 1.493958,-2.182246 0.99962,-3.446277 C 23.303592,13.153785 22.139681,12.727869 21.501953,12 22.215759,11.229498 23.492443,10.725138 23.669621,9.5170074 24.002609,8.0383063 22.775008,6.8873626 22.191756,5.6524829 21.585336,4.6087008 21.029702,3.2253012 19.663152,3.0609387 18.626967,2.8124812 17.693248,3.5634711 16.755859,3.7753906 16.448551,2.7372543 16.623756,1.3528444 15.628906,0.58789062 14.49537,-0.35351095 12.942415,0.11090732 11.6,0 11.010189,0.00529713 10.419279,-0.01054449 9.8300781,0.0078125 Z"
     style="fill:#262729;fill-opacity:1" />
  <path
     d="M19.43 12.98c.04-.32.07-.64.07-.98 0-.34-.03-.66-.07-.98l2.11-1.65c.19-.15.24-.42.12-.64l-2-3.46c-.09-.16-.26-.25-.44-.25-.06 0-.12.01-.17.03l-2.49 1c-.52-.4-1.08-.73-1.69-.98l-.38-2.65C14.46 2.18 14.25 2 14 2h-4c-.25 0-.46.18-.49.42l-.38 2.65c-.61.25-1.17.59-1.69.98l-2.49-1c-.06-.02-.12-.03-.18-.03-.17 0-.34.09-.43.25l-2 3.46c-.13.22-.07.49.12.64l2.11 1.65c-.04.32-.07.65-.07.98 0 .33.03.66.07.98l-2.11 1.65c-.19.15-.24.42-.12.64l2 3.46c.09.16.26.25.44.25.06 0 .12-.01.17-.03l2.49-1c.52.4 1.08.73 1.69.98l.38 2.65c.03.24.24.42.49.42h4c.25 0 .46-.18.49-.42l.38-2.65c.61-.25 1.17-.59 1.69-.98l2.49 1c.06.02.12.03.18.03.17 0 .34-.09.43-.25l2-3.46c.12-.22.07-.49-.12-.64l-2.11-1.65zm-1.98-1.71c.04.31.05.52.05.73 0 .21-.02.43-.05.73l-.14 1.13.89.7 1.08.84-.7 1.21-1.27-.51-1.04-.42-.9.68c-.43.32-.84.56-1.25.73l-1.06.43-.16 1.13-.2 1.35h-1.4l-.19-1.35-.16-1.13-1.06-.43c-.43-.18-.83-.41-1.23-.71l-.91-.7-1.06.43-1.27.51-.7-1.21 1.08-.84.89-.7-.14-1.13c-.03-.31-.05-.54-.05-.74s.02-.43.05-.73l.14-1.13-.89-.7-1.08-.84.7-1.21 1.27.51 1.04.42.9-.68c.43-.32.84-.56 1.25-.73l1.06-.43.16-1.13.2-1.35h1.39l.19 1.35.16 1.13 1.06.43c.43.18.83.41 1.23.71l.91.7 1.06-.43 1.27-.51.7 1.21-1.07.85-.89.7.14 1.13zM12 8c-2.21 0-4 1.79-4 4s1.79 4 4 4 4-1.79 4-4-1.79-4-4-4zm0 6c-1.1 0-2-.9-2-2s.9-2 2-2 2 .9 2 2-.9 2-2 2z"
     id="path4" />
</svg>
