<?xml version="1.0" encoding="UTF-8" standalone="no"?>
<svg
   enable-background="new 0 0 24 24"
   height="24px"
   viewBox="0 0 24 24"
   width="24px"
   fill="#FFFFFF"
   version="1.1"
   id="svg8"
   sodipodi:docname="source_24dp.svg"
   inkscape:version="1.1 (c68e22c387, 2021-05-23)"
   xmlns:inkscape="http://www.inkscape.org/namespaces/inkscape"
   xmlns:sodipodi="http://sodipodi.sourceforge.net/DTD/sodipodi-0.dtd"
   xmlns="http://www.w3.org/2000/svg"
   xmlns:svg="http://www.w3.org/2000/svg">
  <defs
     id="defs12" />
  <sodipodi:namedview
     id="namedview10"
     pagecolor="#505050"
     bordercolor="#eeeeee"
     borderopacity="1"
     inkscape:pageshadow="0"
     inkscape:pageopacity="0"
     inkscape:pagecheckerboard="0"
     showgrid="false"
     inkscape:zoom="32.458333"
     inkscape:cx="10.367137"
     inkscape:cy="12"
     inkscape:window-width="1920"
     inkscape:window-height="1009"
     inkscape:window-x="-8"
     inkscape:window-y="-8"
     inkscape:window-maximized="1"
     inkscape:current-layer="svg8" />
  <path
     id="path912"
     style="fill:#262729;fill-opacity:1"
     d="M 3.9042969,2.0019531 C 1.6854671,1.9932471 -0.18563998,4.1024828 0.00952148,6.2980468 0.02936586,10.369355 -0.04295625,14.444986 0.03320312,18.513672 0.25392267,20.611106 2.3210652,22.209276 4.4,22 9.735267,21.9881 15.07171,22.02368 20.40625,21.98242 22.547593,21.810184 24.216576,19.719955 24,17.6 23.976909,14.229358 24.045588,10.854339 23.966797,7.4863281 23.745361,5.3905121 21.679272,3.7899452 19.6,4 h -6.771875 l -2,-2 C 8.5201968,2.00131 6.2121567,1.99737 3.9042969,2.00195 Z"
     sodipodi:nodetypes="cccccccccccc" />
  <path
     d="M 20,6 H 12 L 10,4 H 4 C 2.9,4 2.01,4.9 2.01,6 L 2,18 c 0,1.1 0.9,2 2,2 h 16 c 1.1,0 2,-0.9 2,-2 V 8 C 22,6.9 21.1,6 20,6 Z m 0,12 H 4 V 6 h 5.17 l 2,2 H 20 Z M 18,12 H 6 v -2 h 12 z m -4,4 H 6 v -2 h 8 z"
     id="path4"
     style="fill:#ffffff;fill-opacity:1" />
</svg>
