<?xml version="1.0" encoding="UTF-8" standalone="no"?>
<svg
   width="212.53403"
   height="51.882782"
   viewBox="0 0 106.26701 25.941391"
   version="1.2"
   id="svg2048"
   sodipodi:docname="formule.svg"
   inkscape:version="1.1 (c68e22c387, 2021-05-23)"
   xmlns:inkscape="http://www.inkscape.org/namespaces/inkscape"
   xmlns:sodipodi="http://sodipodi.sourceforge.net/DTD/sodipodi-0.dtd"
   xmlns="http://www.w3.org/2000/svg"
   xmlns:svg="http://www.w3.org/2000/svg">
  <defs
     id="defs5" />
  <sodipodi:namedview
     id="namedview2050"
     pagecolor="#505050"
     bordercolor="#eeeeee"
     borderopacity="1"
     inkscape:pageshadow="0"
     inkscape:pageopacity="0"
     inkscape:pagecheckerboard="0"
     inkscape:document-units="px"
     showgrid="false"
     units="px"
     fit-margin-top="0"
     fit-margin-left="0"
     fit-margin-right="0"
     fit-margin-bottom="0"
     inkscape:zoom="4"
     inkscape:cx="75.75"
     inkscape:cy="19.875"
     inkscape:window-width="1920"
     inkscape:window-height="1009"
     inkscape:window-x="-8"
     inkscape:window-y="-8"
     inkscape:window-maximized="1"
     inkscape:current-layer="svg2048"
     inkscape:snap-page="true"
     scale-x="0.5"
     inkscape:snap-bbox="true"
     inkscape:bbox-nodes="true" />
  <rect
     style="display:inline;fill:#1c1d1f;fill-opacity:1;stroke-width:3.45631;stroke-linejoin:round;paint-order:stroke fill markers"
     id="rect843"
     width="106.267"
     height="25.941391"
     x="5.3420809e-15"
     y="-2.8865799e-15"
     ry="3.625" />
  <path
     id="path2757"
     style="fill:#ffffff;fill-opacity:1;stroke:none;stroke-width:1;stroke-miterlimit:4;stroke-dasharray:none;stroke-opacity:1;paint-order:stroke fill markers"
     d="m 71.390424,1.0257695 c -0.140625,0 -0.15625,0 -0.3125,0.15625 -3.328125,3.046875 -4.375,7.6093754 -4.375,11.7968755 0,3.921875 0.890625,7.875 3.421875,10.859375 0.203125,0.21875 0.578125,0.625 0.984375,0.984375 0.125,0.125 0.140625,0.125 0.28125,0.125 0.140625,0 0.21875,0 0.21875,-0.09375 0,-0.04687 -0.03126,-0.0625 -0.04687,-0.09375 -0.375,-0.375 -1.03125,-1.03125 -1.703125,-2.109375 -1.609375,-2.578125 -2.328125,-5.8125 -2.328125,-9.65625 0,-2.6875 0.359375,-6.1406255 2,-9.1093755 0.78125,-1.421875 1.609375,-2.234375 2.046875,-2.671875 0.03125,-0.03125 0.03125,-0.046875 0.03125,-0.078125 0,-0.109375 -0.07813,-0.109375 -0.21875,-0.109375 z m 29.205076,0 c -0.125,0 -0.21874,0 -0.21874,0.109375 0,0.03125 0.0469,0.078125 0.0625,0.09375 0.34374,0.359375 1.01562,1.03125 1.6875,2.109375 1.60938,2.5625 2.32812,5.8125004 2.32812,9.6406255 0,2.6875 -0.35938,6.140625 -2,9.125 -0.78125,1.40625 -1.60938,2.234375 -2.03125,2.65625 -0.0156,0.03125 -0.0469,0.0625 -0.0469,0.09375 0,0.09375 0.0937,0.09375 0.21874,0.09375 0.14064,0 0.15626,0 0.3125,-0.15625 3.32814,-3.03125 4.37501,-7.59375 4.375,-11.796875 0,-3.9218751 -0.89062,-7.8593755 -3.42187,-10.8437505 -0.20313,-0.234375 -0.57812,-0.640625 -0.98437,-1 -0.125,-0.125 -0.14063,-0.125 -0.28126,-0.125 z m -7.955073,0.9003906 c -0.1875,0 -0.29688,0 -0.29688,0.1875 0,0.125 0.0781,0.125 0.28125,0.125 0.125,0 0.3125,0.015625 0.42188,0.015625 0.17187,0.03125 0.21875,0.046875 0.21875,0.171875 0,0.03125 -5e-5,0.0625 -0.0312,0.1875 l -1.34375,5.3437498 c -0.0937,0.390625 -0.10938,0.46875 -0.90625,0.46875 -0.15625,0 -0.26563,0 -0.26563,0.1875 0,0.125 0.0781,0.125 0.26563,0.125 h 3.3125 c 2.0625,0 4.031251,-2.1093748 4.031251,-4.2812498 0,-1.40625 -0.843751,-2.53125 -2.343751,-2.53125 z m 1.95312,0.3125 h 1.0625 c 0.96875,0 1.79688,0.5312501 1.79688,1.84375 0,0.484375 -0.1875,2.125 -1.04688,3.21875 -0.28125,0.3749998 -1.0625,1.1249998 -2.29687,1.1249998 h -1.125 -0.21875 c -0.0937,-0.01563 -0.125,-0.03125 -0.125,-0.109375 0,-0.03125 -3e-5,-0.04687 0.0469,-0.21875 l 1.35938,-5.4843748 c 0.0937,-0.34375 0.10937,-0.3749999 0.54687,-0.375 z M 40.952924,8.5570199 c -0.21875,0 -0.953125,0.07813 -1.21875,0.109375 -0.07813,0 -0.1875,0.01563 -0.1875,0.1875 0,0.125 0.09375,0.125 0.25,0.125 0.46875,0 0.484375,0.0625 0.484375,0.171875 0,0.0625 -0.07813,0.40625 -0.125,0.6093746 l -0.828125,3.2500005 c -0.109375,0.5 -0.15625,0.671875 -0.15625,1.015625 0,0.9375 0.53125,1.5625 1.265625,1.5625 1.171875,0 2.40625,-1.484375 2.40625,-2.921875 0,-0.90625 -0.53125,-1.59375 -1.328125,-1.59375 -0.453125,0 -0.875,0.296875 -1.171875,0.59375 l 0.734375,-3.0000001 c 0,0 0,-0.109375 -0.125,-0.109375 z m 7.224609,0 c -0.21875,0 -0.953125,0.07813 -1.21875,0.109375 -0.07813,0 -0.1875,0.01563 -0.1875,0.203125 0,0.109375 0.109375,0.109375 0.25,0.109375 0.484375,0 0.5,0.09375 0.5,0.171875 l -0.03125,0.203125 -1.265625,4.9843751 c -0.03125,0.109375 -0.04687,0.171875 -0.04687,0.328125 0,0.578125 0.4375,0.921875 0.90625,0.921875 0.328125,0 0.578125,-0.203125 0.75,-0.5625 0.171875,-0.375 0.296875,-0.953125 0.296875,-0.96875 0,-0.109375 -0.09375,-0.109375 -0.125,-0.109375 -0.09375,0 -0.109375,0.04687 -0.125,0.1875 -0.171875,0.640625 -0.359375,1.234375 -0.765625,1.234375 -0.296875,0 -0.296875,-0.3125 -0.296875,-0.453125 0,-0.25 0.01563,-0.296875 0.0625,-0.484375 l 1.4375,-5.7656251 c 0,0 0,-0.109375 -0.140625,-0.109375 z M 1.9900326,8.7288949 c -0.234375,0 -0.25,0.01563 -0.328125,0.203125 l -0.59375,1.7500001 c 0,0.01563 -0.0625,0.15625 -0.0625,0.1875 0,0.04687 0.0625,0.109375 0.125,0.109375 0.09375,0 0.109375,-0.0625 0.171875,-0.21875 0.53125,-1.5468751 0.796875,-1.7187501 2.265625,-1.7187501 h 0.390625 c 0.28125,0 0.28125,0.03125 0.28125,0.125 0,0.04687 -0.03125,0.171875 -0.04687,0.203125 l -1.328125,5.3281251 c -0.09375,0.359375 -0.125,0.46875 -1.1875,0.46875 -0.359375,0 -0.421875,0 -0.421875,0.1875 0,0.125 0.109375,0.125 0.171875,0.125 0.265625,0 0.546875,-0.01563 0.8125,-0.01563 0.28125,0 0.578125,-0.01563 0.859375,-0.01563 0.28125,0 0.546875,0.01563 0.828125,0.01563 0.28125,0 0.578125,0.01563 0.859375,0.01563 0.09375,0 0.21875,0 0.21875,-0.203125 0,-0.109375 -0.07813,-0.109375 -0.34375,-0.109375 -0.234375,0 -0.375,5e-6 -0.625,-0.01563 -0.296875,-0.03125 -0.375,-0.0625 -0.375,-0.21875 0,-0.01563 5e-6,-0.0625 0.04687,-0.203125 l 1.3125,-5.2968751 c 0.07813,-0.28125 0.109375,-0.34375 0.234375,-0.375 0.09375,-0.01563 0.421875,-0.01563 0.625,-0.01563 1.015625,0 1.453125,0.03125 1.453125,0.8124996 0,0.1562505 -0.03125,0.5468755 -0.07813,0.7968755 0,0.04687 -0.03125,0.15625 -0.03125,0.1875 0,0.0625 0.03125,0.140625 0.125,0.140625 0.109375,0 0.125,-0.07813 0.15625,-0.234375 l 0.265625,-1.7343751 c 0.01563,-0.04687 0.01563,-0.140625 0.01563,-0.171875 0,-0.109375 -0.09375,-0.109375 -0.265625,-0.109375 z m 72.6718754,0.109375 c -0.625,0.640625 -1.5,0.640625 -1.8125,0.640625 v 0.3124996 c 0.203125,0 0.78125,0 1.296875,-0.2656246 v 5.1718751 c 0,0.359375 -0.03125,0.46875 -0.921875,0.46875 h -0.3125 v 0.3125 c 0.34375,-0.03125 1.203125,-0.03125 1.609375,-0.03125 0.390625,0 1.265625,0 1.609375,0.03125 v -0.3125 h -0.3125 c -0.90625,0 -0.921875,-0.109375 -0.921875,-0.46875 V 9.1038949 c 0,-0.25 0,-0.265625 -0.234375,-0.265625 z m -42.046875,0.828125 c -0.203125,0 -0.203125,0.1874996 -0.203125,0.3281246 v 2.7968755 h -2.78125 c -0.140625,0 -0.328125,0 -0.328125,0.1875 0,0.203125 0.1875,0.203125 0.328125,0.203125 h 2.78125 v 2.796875 c 0,0.140625 0,0.328125 0.203125,0.328125 0.203125,0 0.203125,-0.1875 0.203125,-0.328125 V 13.18202 h 2.78125 c 0.140625,0 0.328125,0 0.328125,-0.203125 0,-0.1875 -0.1875,-0.1875 -0.328125,-0.1875 h -2.78125 V 9.9945195 c 0,-0.140625 0,-0.3281246 -0.203125,-0.3281246 z m 50.41211,0 c -0.203125,0 -0.203125,0.1874996 -0.203125,0.3281246 v 2.7968755 h -2.78125 c -0.140625,0 -0.328125,0 -0.328125,0.1875 0,0.203125 0.1875,0.203125 0.328125,0.203125 h 2.78125 v 2.796875 c 0,0.140625 0,0.328125 0.203125,0.328125 0.203125,0 0.203125,-0.1875 0.203125,-0.328125 V 13.18202 h 2.78125 c 0.140625,0 0.328125,0 0.328125,-0.203125 0,-0.1875 -0.1875,-0.1875 -0.328125,-0.1875 h -2.78125 V 9.9945195 c 0,-0.140625 0,-0.3281246 -0.203125,-0.3281246 z m -58.96875,1.4062501 c -1.15625,0 -2.390625,1.46875 -2.390625,2.921875 0,0.9375 0.546875,1.59375 1.3125,1.59375 0.203125,0 0.703125,-0.04687 1.296875,-0.75 0.07813,0.421875 0.4375,0.75 0.90625,0.75 0.359375,0 0.578125,-0.234375 0.75,-0.546875 0.15625,-0.359375 0.296875,-0.96875 0.296875,-0.984375 0,-0.109375 -0.09375,-0.109375 -0.125,-0.109375 -0.09375,0 -0.109375,0.04687 -0.140625,0.1875 -0.171875,0.640625 -0.34375,1.234375 -0.75,1.234375 -0.28125,0 -0.296875,-0.265625 -0.296875,-0.453125 0,-0.21875 0.01563,-0.3125 0.125,-0.75 0.109375,-0.40625 0.125,-0.515625 0.21875,-0.890625 l 0.359375,-1.390625 c 0.0625,-0.28125 0.0625,-0.296875 0.0625,-0.34375 0,-0.171875 -0.109375,-0.265625 -0.28125,-0.265625 -0.25,0 -0.390625,0.21875 -0.421875,0.4375 -0.1875,-0.375 -0.46875,-0.640625 -0.921875,-0.640625 z m 27.93164,0 c -1.328125,0 -2.671875,1.421875 -2.671875,2.828125 0,0.984375 0.671875,1.6875 1.59375,1.6875 1.328125,0 2.671875,-1.375 2.671875,-2.828125 0,-1.046875 -0.6875,-1.6875 -1.59375,-1.6875 z m 4.84375,0 c -1.125,0 -2.359375,1.390625 -2.359375,2.828125 0,0.984375 0.59375,1.578125 1.3125,1.578125 0.59375,0 1.0625,-0.46875 1.15625,-0.578125 l 0.01563,0.01563 c -0.203125,0.875 -0.328125,1.296875 -0.328125,1.3125 -0.04687,0.09375 -0.375,1.078125 -1.4375,1.078125 -0.1875,0 -0.515625,-0.01563 -0.796875,-0.109375 0.296875,-0.07813 0.40625,-0.34375 0.40625,-0.515625 0,-0.15625 -0.109375,-0.34375 -0.375,-0.34375 -0.21875,0 -0.53125,0.171875 -0.53125,0.578125 0,0.40625 0.359375,0.609375 1.3125,0.609375 1.25,0 1.96875,-0.78125 2.125,-1.375 l 1.09375,-4.4375 c 0.01563,-0.04687 0.03125,-0.109375 0.03125,-0.171875 0,-0.171875 -0.109375,-0.265625 -0.28125,-0.265625 -0.09375,0 -0.375,0.0625 -0.40625,0.421875 -0.1875,-0.359375 -0.53125,-0.625 -0.9375,-0.625 z m -32.759765,0.21875 c 0.640625,0 0.78125,0.8125 0.78125,0.875 0,0.0625 -0.01563,0.125 -0.03125,0.171875 l -0.484375,1.953125 c -0.0625,0.1875 -0.0625,0.203125 -0.203125,0.375 -0.4375,0.546875 -0.84375,0.703125 -1.125,0.703125 -0.5,0 -0.640625,-0.546875 -0.640625,-0.9375 0,-0.5 0.3125,-1.71875 0.546875,-2.1875 0.3125,-0.578125 0.75,-0.953125 1.15625,-0.953125 z m 17.425781,0 c 0.359375,0 0.625,0.296875 0.625,0.9375 0,0.59375 -0.328125,1.734375 -0.515625,2.109375 -0.328125,0.671875 -0.78125,1.03125 -1.171875,1.03125 -0.34375,0 -0.671875,-0.265625 -0.671875,-1 0,-0.203125 0,-0.390625 0.15625,-1.015625 l 0.234375,-0.921875 c 0.04687,-0.21875 0.04687,-0.234375 0.140625,-0.34375 0.484375,-0.640625 0.9375,-0.796875 1.203125,-0.796875 z m 10.490234,0 c 0.578125,0 0.875,0.484375 0.875,1.078125 0,0.390625 -0.203125,1.4375 -0.578125,2.078125 -0.359375,0.578125 -0.90625,0.921875 -1.359375,0.921875 -0.4375,0 -0.875,-0.3125 -0.875,-1.09375 0,-0.484375 0.265625,-1.5625 0.578125,-2.0625 0.5,-0.765625 1.078125,-0.921875 1.359375,-0.921875 z m 4.859375,0 c 0.65625,0 0.796875,0.8125 0.796875,0.859375 0,0.04687 -0.01563,0.109375 -0.03125,0.140625 l -0.46875,1.90625 c -0.0625,0.265625 -0.296875,0.515625 -0.515625,0.703125 -0.203125,0.171875 -0.515625,0.359375 -0.8125,0.359375 -0.5,0 -0.640625,-0.515625 -0.640625,-0.921875 0,-0.46875 0.28125,-1.65625 0.5625,-2.15625 0.265625,-0.484375 0.6875,-0.890625 1.109375,-0.890625 z m -45.214843,0.53125 c -0.140626,0 -0.328126,0 -0.328126,0.203125 0,0.1875 0.1875,0.1875 0.328126,0.1875 h 5.953124 c 0.15625,0 0.34375,0 0.34375,-0.1875 0,-0.203125 -0.1875,-0.203125 -0.328124,-0.203125 z m 48.751953,0.52539 c -0.859375,0 -1.453125,0.609375 -1.453125,1.25 0,0.34375 0.296875,0.390625 0.375,0.390625 0.15625,0 0.359375,-0.125 0.359375,-0.375 0,-0.125 -0.04687,-0.375 -0.40625,-0.375 0.21875,-0.484375 0.6875,-0.640625 1.015625,-0.640625 0.703125,0 1.0625,0.546875 1.0625,1.109375 0,0.609375 -0.4375,1.078125 -0.65625,1.328125 l -1.671875,1.671875 c -0.07813,0.0625 -0.07813,0.07813 -0.07813,0.265625 h 2.875 l 0.203125,-1.265625 h -0.234375 c -0.01563,0.15625 -0.09375,0.5625 -0.1875,0.625 -0.04687,0.04687 -0.578125,0.04687 -0.6875,0.04687 h -1.28125 c 0.734375,-0.640625 0.984375,-0.84375 1.390625,-1.171875 0.515625,-0.40625 1,-0.84375 1,-1.5 0,-0.84375 -0.734375,-1.359375 -1.625,-1.359375 z m 29.925779,0.640625 h 8.527351 z m -78.677732,0.771485 c -0.140626,0 -0.328126,0 -0.328126,0.1875 0,0.203125 0.1875,0.203125 0.328126,0.203125 h 5.96875 c 0.140624,0 0.328124,0 0.328124,-0.203125 0,-0.1875 -0.1875,-0.1875 -0.34375,-0.1875 z m 81.753902,1.740234 c -0.0625,0 -0.1875,0 -0.1875,0.203125 0,0.109375 0.0937,0.109375 0.28125,0.109375 0.0156,0 0.20312,-5e-6 0.375,0.01563 0.17187,0.03125 0.26563,0.03125 0.26563,0.171875 0,0.03125 -5e-5,0.0625 -0.0312,0.1875 l -1.34375,5.34375 c -0.0937,0.390625 -0.10937,0.46875 -0.90625,0.46875 -0.17187,0 -0.26563,0 -0.26563,0.203125 -5e-5,0.10937 0.09366,0.10937 0.26558,0.10937 h 4.625 c 0.23438,0 0.23437,0 0.29687,-0.171875 l 0.79688,-2.15625 c 0.0312,-0.109375 0.0312,-0.125 0.0312,-0.140625 0,-0.03125 -0.0312,-0.109375 -0.10938,-0.109375 -0.0937,0 -0.10937,0.0625 -0.17187,0.21875 -0.34375,0.90625 -0.78125,2.046875 -2.5,2.046875 h -0.9375 -0.21875 c -0.10937,-0.01563 -0.14063,-0.03125 -0.14063,-0.109375 0,-0.03125 -2e-5,-0.04687 0.0469,-0.21875 l 1.35937,-5.390625 c 0.0781,-0.359375 0.10938,-0.46875 1.04688,-0.46875 0.29688,0 0.375,0 0.375,-0.1875 0,-0.125 -0.10937,-0.125 -0.15625,-0.125 -0.32812,0 -1.14062,0.03125 -1.46875,0.03125 -0.29687,0 -1.03126,-0.03125 -1.32813,-0.03125 z" />
</svg>
